<?xml version="1.0" encoding="utf-8"?>
<!-- Svg Vector Icons : http://www.onlinewebfonts.com/icon -->
<!DOCTYPE svg PUBLIC "-//W3C//DTD SVG 1.1//EN" "http://www.w3.org/Graphics/SVG/1.1/DTD/svg11.dtd">
<svg version="1.1" xmlns="http://www.w3.org/2000/svg" xmlns:xlink="http://www.w3.org/1999/xlink" x="0px" y="0px" viewBox="0 0 1000 1000" enable-background="new 0 0 1000 1000" xml:space="preserve">
<metadata> Svg Vector Icons : http://www.onlinewebfonts.com/icon </metadata>
<g><g><g><path d="M521.2,543.8H102.4c-14,0-25.3-11.3-25.3-25.3V94.3c0-14,11.3-25.3,25.3-25.3H637c14,0,25.3,11.3,25.3,25.3v296.4h67.1V27.3C729.3,13.3,718,2,704,2H35.3C21.3,2,10,13.3,10,27.3V696c0,14,11.3,25.3,25.3,25.3h485.9V543.8z"/><path d="M336.7,279.4L126,490.1c-4.6,4.6-1.4,12.6,5.2,12.6h390v-53.7c0-10.6,2.9-20.6,7.9-29.2L388.6,279.4C374.3,265,351,265,336.7,279.4z"/><circle cx="524.6" cy="196" r="61.5"/><path d="M975.6,751.7h-61.5v-301c0-18.5-15-33.4-33.4-33.4H729.3h-67.1h-82.9c-14.3,0-26.4,9.5-30.3,22.5c-0.9,2.9-1.4,6-1.4,9.2v53.7v41.1v177.5v30.4h-61.5c-13,0-19.3,16-9.7,24.9l230.4,212.1c6.8,6.3,15.4,9.4,24.1,9.4s17.3-3.1,24-9.4l230.4-212.1C994.9,767.7,988.7,751.7,975.6,751.7z"/></g></g><g></g><g></g><g></g><g></g><g></g><g></g><g></g><g></g><g></g><g></g><g></g><g></g><g></g><g></g><g></g></g>
</svg>